<mxfile host="app.diagrams.net" modified="2023-08-01T06:57:21.022Z" agent="Mozilla/5.0 (Windows NT 10.0; Win64; x64) AppleWebKit/537.36 (KHTML, like Gecko) Chrome/109.0.0.0 Safari/537.36" etag="YBuj6wyfHZtQmq6UlQT0" version="21.6.6" type="device">
  <diagram name="Page-1" id="sGk9SiDRsVmA3llAnQVP">
    <mxGraphModel dx="2204" dy="1926" grid="1" gridSize="10" guides="1" tooltips="1" connect="1" arrows="1" fold="1" page="1" pageScale="1" pageWidth="850" pageHeight="1100" math="0" shadow="0">
      <root>
        <mxCell id="0" />
        <mxCell id="1" parent="0" />
        <mxCell id="UncWfILNrETgP3VBMc2K-1" value="" style="rounded=0;whiteSpace=wrap;html=1;strokeColor=#314354;opacity=30;fontSize=17;fontStyle=1;fillColor=#647687;fontColor=#ffffff;" vertex="1" parent="1">
          <mxGeometry x="-600" y="-80" width="1200" height="1170" as="geometry" />
        </mxCell>
        <mxCell id="UncWfILNrETgP3VBMc2K-14" value="" style="endArrow=none;html=1;rounded=0;" edge="1" parent="1">
          <mxGeometry width="50" height="50" relative="1" as="geometry">
            <mxPoint x="-280" y="240" as="sourcePoint" />
            <mxPoint x="-280" y="240" as="targetPoint" />
          </mxGeometry>
        </mxCell>
        <mxCell id="UncWfILNrETgP3VBMc2K-16" value="" style="endArrow=none;html=1;rounded=0;strokeWidth=1;spacingLeft=0;fontSize=1;endSize=2;opacity=50;" edge="1" parent="1">
          <mxGeometry width="50" height="50" relative="1" as="geometry">
            <mxPoint x="-328" y="66" as="sourcePoint" />
            <mxPoint x="-328" y="46" as="targetPoint" />
          </mxGeometry>
        </mxCell>
        <mxCell id="UncWfILNrETgP3VBMc2K-28" value="" style="group;fillColor=#e3c800;fontColor=#000000;strokeColor=#B09500;" vertex="1" connectable="0" parent="1">
          <mxGeometry x="-600" y="-80" width="1200" height="160" as="geometry" />
        </mxCell>
        <mxCell id="UncWfILNrETgP3VBMc2K-2" value="&lt;font color=&quot;#d6d5de&quot; style=&quot;font-size: 27px; background-color: rgb(255, 255, 255);&quot;&gt;Navbar&lt;/font&gt;" style="rounded=0;whiteSpace=wrap;html=1;textOpacity=50;strokeColor=#B8B8B8;opacity=50;" vertex="1" parent="UncWfILNrETgP3VBMc2K-28">
          <mxGeometry x="-1" width="1200" height="160" as="geometry" />
        </mxCell>
        <mxCell id="UncWfILNrETgP3VBMc2K-4" value="&lt;font style=&quot;font-size: 30px;&quot;&gt;Search Bar&lt;/font&gt;" style="rounded=1;whiteSpace=wrap;html=1;" vertex="1" parent="UncWfILNrETgP3VBMc2K-28">
          <mxGeometry x="330" y="15" width="540" height="60" as="geometry" />
        </mxCell>
        <mxCell id="UncWfILNrETgP3VBMc2K-6" value="" style="whiteSpace=wrap;html=1;aspect=fixed;rounded=1;" vertex="1" parent="UncWfILNrETgP3VBMc2K-28">
          <mxGeometry x="1050" y="15" width="50" height="50" as="geometry" />
        </mxCell>
        <mxCell id="UncWfILNrETgP3VBMc2K-7" value="" style="ellipse;whiteSpace=wrap;html=1;" vertex="1" parent="UncWfILNrETgP3VBMc2K-28">
          <mxGeometry x="1120" y="15" width="50" height="50" as="geometry" />
        </mxCell>
        <mxCell id="UncWfILNrETgP3VBMc2K-9" value="Home" style="text;html=1;strokeColor=none;fillColor=none;align=center;verticalAlign=middle;whiteSpace=wrap;rounded=0;fontSize=17;fontStyle=1" vertex="1" parent="UncWfILNrETgP3VBMc2K-28">
          <mxGeometry x="70" y="120" width="60" height="30" as="geometry" />
        </mxCell>
        <mxCell id="UncWfILNrETgP3VBMc2K-10" value="Top News" style="text;html=1;strokeColor=none;fillColor=none;align=center;verticalAlign=middle;whiteSpace=wrap;rounded=0;fontSize=17;fontStyle=1" vertex="1" parent="UncWfILNrETgP3VBMc2K-28">
          <mxGeometry x="150" y="120" width="100" height="30" as="geometry" />
        </mxCell>
        <mxCell id="UncWfILNrETgP3VBMc2K-17" value="India" style="text;html=1;strokeColor=none;fillColor=none;align=center;verticalAlign=middle;whiteSpace=wrap;rounded=0;fontSize=17;fontStyle=1" vertex="1" parent="UncWfILNrETgP3VBMc2K-28">
          <mxGeometry x="310" y="120" width="60" height="30" as="geometry" />
        </mxCell>
        <mxCell id="UncWfILNrETgP3VBMc2K-18" value="World" style="text;html=1;strokeColor=none;fillColor=none;align=center;verticalAlign=middle;whiteSpace=wrap;rounded=0;fontSize=17;fontStyle=1" vertex="1" parent="UncWfILNrETgP3VBMc2K-28">
          <mxGeometry x="390" y="120" width="60" height="30" as="geometry" />
        </mxCell>
        <mxCell id="UncWfILNrETgP3VBMc2K-19" value="Business" style="text;html=1;strokeColor=none;fillColor=none;align=center;verticalAlign=middle;whiteSpace=wrap;rounded=0;fontSize=17;fontStyle=1" vertex="1" parent="UncWfILNrETgP3VBMc2K-28">
          <mxGeometry x="485" y="120" width="60" height="30" as="geometry" />
        </mxCell>
        <mxCell id="UncWfILNrETgP3VBMc2K-20" value="Technology" style="text;html=1;strokeColor=none;fillColor=none;align=center;verticalAlign=middle;whiteSpace=wrap;rounded=0;fontSize=17;fontStyle=1" vertex="1" parent="UncWfILNrETgP3VBMc2K-28">
          <mxGeometry x="604" y="120" width="60" height="30" as="geometry" />
        </mxCell>
        <mxCell id="UncWfILNrETgP3VBMc2K-21" value="Politics" style="text;html=1;strokeColor=none;fillColor=none;align=center;verticalAlign=middle;whiteSpace=wrap;rounded=0;fontSize=17;fontStyle=1" vertex="1" parent="UncWfILNrETgP3VBMc2K-28">
          <mxGeometry x="717" y="120" width="60" height="30" as="geometry" />
        </mxCell>
        <mxCell id="UncWfILNrETgP3VBMc2K-22" value="Sports" style="text;html=1;strokeColor=none;fillColor=none;align=center;verticalAlign=middle;whiteSpace=wrap;rounded=0;fontSize=17;fontStyle=1" vertex="1" parent="UncWfILNrETgP3VBMc2K-28">
          <mxGeometry x="883" y="120" width="60" height="30" as="geometry" />
        </mxCell>
        <mxCell id="UncWfILNrETgP3VBMc2K-25" value="Entertaainment" style="text;html=1;strokeColor=none;fillColor=none;align=center;verticalAlign=middle;whiteSpace=wrap;rounded=0;fontSize=17;fontStyle=1" vertex="1" parent="UncWfILNrETgP3VBMc2K-28">
          <mxGeometry x="1017" y="120" width="60" height="30" as="geometry" />
        </mxCell>
        <mxCell id="UncWfILNrETgP3VBMc2K-26" value="Health" style="text;html=1;strokeColor=none;fillColor=none;align=center;verticalAlign=middle;whiteSpace=wrap;rounded=0;fontSize=17;fontStyle=1" vertex="1" parent="UncWfILNrETgP3VBMc2K-28">
          <mxGeometry x="800" y="120" width="60" height="30" as="geometry" />
        </mxCell>
        <mxCell id="UncWfILNrETgP3VBMc2K-27" value="LOGO" style="text;html=1;strokeColor=none;fillColor=none;align=center;verticalAlign=middle;whiteSpace=wrap;rounded=0;fontSize=40;fontStyle=1;spacingTop=0;spacing=13;" vertex="1" parent="UncWfILNrETgP3VBMc2K-28">
          <mxGeometry x="100" y="30" width="58" height="30" as="geometry" />
        </mxCell>
        <mxCell id="UncWfILNrETgP3VBMc2K-29" value="" style="rounded=1;whiteSpace=wrap;html=1;opacity=50;fillColor=#fa6800;fontColor=#000000;strokeColor=#C73500;arcSize=5;" vertex="1" parent="1">
          <mxGeometry x="-550" y="100" width="820" height="900" as="geometry" />
        </mxCell>
        <mxCell id="UncWfILNrETgP3VBMc2K-30" value="Footer" style="rounded=0;whiteSpace=wrap;html=1;opacity=50;fillColor=#76608a;fontColor=#ffffff;strokeColor=#432D57;" vertex="1" parent="1">
          <mxGeometry x="-600" y="1020" width="1200" height="70" as="geometry" />
        </mxCell>
        <mxCell id="UncWfILNrETgP3VBMc2K-31" value="&lt;font color=&quot;#917365&quot; style=&quot;font-size: 30px;&quot;&gt;Weather / Stock market&amp;nbsp;&lt;/font&gt;" style="rounded=1;whiteSpace=wrap;html=1;fillColor=#a0522d;fontColor=#ffffff;strokeColor=#6D1F00;opacity=50;arcSize=9;" vertex="1" parent="1">
          <mxGeometry x="290" y="100" width="250" height="500" as="geometry" />
        </mxCell>
        <mxCell id="UncWfILNrETgP3VBMc2K-32" value="" style="rounded=1;whiteSpace=wrap;html=1;fillColor=#a0522d;fontColor=#ffffff;strokeColor=#6D1F00;opacity=50;arcSize=9;" vertex="1" parent="1">
          <mxGeometry x="290" y="620" width="250" height="370" as="geometry" />
        </mxCell>
        <mxCell id="UncWfILNrETgP3VBMc2K-33" value="Local News" style="text;html=1;strokeColor=none;fillColor=none;align=center;verticalAlign=middle;whiteSpace=wrap;rounded=0;fontSize=40;textOpacity=50;" vertex="1" parent="1">
          <mxGeometry x="380" y="780" width="60" height="28" as="geometry" />
        </mxCell>
        <mxCell id="UncWfILNrETgP3VBMc2K-34" value="Top News" style="text;html=1;strokeColor=none;fillColor=none;align=center;verticalAlign=middle;whiteSpace=wrap;rounded=0;fontSize=60;textOpacity=50;" vertex="1" parent="1">
          <mxGeometry x="-300" y="530" width="340" height="30" as="geometry" />
        </mxCell>
      </root>
    </mxGraphModel>
  </diagram>
</mxfile>
